<svg width="20" height="20" viewBox="0 0 20 20" fill="none" xmlns="http://www.w3.org/2000/svg">
<g clip-path="url(#clip0_56_126)">
<path d="M0.774658 18.3334C0.774658 18.7936 1.14738 19.1667 1.60799 19.1667C2.0686 19.1667 2.44132 18.7936 2.44132 18.3334C2.44132 15.3927 4.13424 12.7893 6.77304 11.5582C7.68628 12.1516 8.7727 12.5 9.94051 12.5C11.1127 12.5 12.2033 12.1493 13.1187 11.5517C13.9065 11.9235 14.6365 12.4238 15.2441 13.031C16.6609 14.4483 17.4413 16.3314 17.4413 18.3334C17.4413 18.7936 17.814 19.1667 18.2747 19.1667C18.7353 19.1667 19.108 18.7936 19.108 18.3334C19.108 15.8863 18.1542 13.5848 16.4224 11.8527C15.843 11.2729 15.1695 10.7757 14.4469 10.3659C15.2754 9.35846 15.7738 8.0698 15.7738 6.66671C15.7738 3.45015 13.1567 0.833374 9.94051 0.833374C6.72436 0.833374 4.10718 3.45015 4.10718 6.66671C4.10718 8.0664 4.60355 9.3519 5.42838 10.3583C2.56772 11.9689 0.774658 14.9782 0.774658 18.3334ZM9.94051 2.50004C12.2379 2.50004 14.1072 4.36934 14.1072 6.66671C14.1072 8.96407 12.2379 10.8334 9.94051 10.8334C7.64315 10.8334 5.77384 8.96407 5.77384 6.66671C5.77384 4.36934 7.64315 2.50004 9.94051 2.50004Z" fill="#D2F159"/>
</g>
<defs>
<clipPath id="clip0_56_126">
<rect width="20" height="20" fill="white"/>
</clipPath>
</defs>
</svg>
