<svg width="32" height="32" viewBox="0 0 32 32" fill="none" xmlns="http://www.w3.org/2000/svg">
<path d="M28 25.3997C28 26.8724 26.8058 28.0667 25.333 28.0667H6.66699C5.19423 28.0667 4 26.8724 4 25.3997V14.7336H28V25.3997ZM16 17.3333C15.2636 17.3333 14.667 17.9309 14.667 18.6672V20.0002H13.333C12.5968 20.0004 12.0001 20.5971 12 21.3333C12 22.0695 12.5968 22.6671 13.333 22.6672H14.667V24.0002C14.6671 24.7365 15.2637 25.3333 16 25.3333C16.7363 25.3333 17.3329 24.7365 17.333 24.0002V22.6672H18.667C19.4032 22.6671 20 22.0695 20 21.3333C19.9999 20.5971 19.4032 20.0004 18.667 20.0002H17.333V18.6672C17.333 17.9309 16.7364 17.3333 16 17.3333ZM22.667 4.06665C23.4031 4.06683 23.9998 4.66357 24 5.39966V6.73364H25.333C26.8056 6.73364 27.9998 7.92709 28 9.39966V12.0667H4V9.39966C4.00022 7.92709 5.19437 6.73364 6.66699 6.73364H8V5.39966C8.00022 4.66357 8.59691 4.06683 9.33301 4.06665C10.0693 4.06665 10.6668 4.66347 10.667 5.39966V6.73364H14.667V5.39966C14.6672 4.66347 15.2638 4.06665 16 4.06665C16.7362 4.06665 17.3328 4.66347 17.333 5.39966V6.73364H21.333V5.39966C21.3332 4.66347 21.9307 4.06665 22.667 4.06665Z" fill="#D2F159"/>
</svg>
