<svg width="16" height="16" viewBox="0 0 16 16" fill="none" xmlns="http://www.w3.org/2000/svg">
<path d="M4.00008 7.33334V4.13334C4.00008 3.38661 4.00008 3.01296 4.14541 2.72774C4.27324 2.47686 4.47706 2.27303 4.72795 2.1452C5.01316 1.99988 5.38681 1.99988 6.13355 1.99988H9.11656C9.19827 1.99988 9.26975 1.99988 9.33341 2.00046M13.3328 5.99988C13.3334 6.06362 13.3334 6.13519 13.3334 6.217V11.8689C13.3334 12.6142 13.3334 12.9869 13.1882 13.2718C13.0604 13.5227 12.856 13.7269 12.6051 13.8547C12.3202 13.9999 11.9474 13.9999 11.2021 13.9999L8.66675 13.9999M13.3328 5.99988C13.331 5.80955 13.3239 5.68905 13.2963 5.5741C13.2636 5.43805 13.2096 5.30797 13.1365 5.18868C13.054 5.05412 12.9393 4.93914 12.7087 4.70853L10.6251 2.62488C10.3946 2.39442 10.2791 2.27892 10.1446 2.19649C10.0253 2.12339 9.89536 2.06938 9.75931 2.03672C9.64431 2.00911 9.52384 2.00219 9.33341 2.00046M13.3328 5.99988H13.3335M13.3328 5.99988H11.4647C10.7194 5.99988 10.3462 5.99988 10.0613 5.8547C9.8104 5.72686 9.60657 5.52249 9.47874 5.2716C9.33341 4.98639 9.33341 4.61328 9.33341 3.86654V2.00046M6.00008 9.33321L7.33341 10.6665M2.66675 13.9999V12.3332L7.66675 7.33321L9.33341 8.99988L4.33341 13.9999H2.66675Z" stroke="white" stroke-linecap="round" stroke-linejoin="round"/>
</svg>
