<svg width="20" height="20" viewBox="0 0 20 20" fill="none" xmlns="http://www.w3.org/2000/svg">
<path d="M18.0251 12.292C18.0251 13.0336 17.8167 13.7336 17.4501 14.3336C16.7667 15.4836 15.5084 16.2503 14.0667 16.2503C12.6251 16.2503 11.3667 15.4753 10.6834 14.3336C10.3167 13.742 10.1084 13.0336 10.1084 12.292C10.1084 10.1086 11.8834 8.33362 14.0667 8.33362C16.2501 8.33362 18.0251 10.1086 18.0251 12.292Z" stroke="white" stroke-width="1.5" stroke-miterlimit="10" stroke-linecap="round" stroke-linejoin="round"/>
<path d="M15.5499 12.2754H12.5916" stroke="white" stroke-width="1.5" stroke-miterlimit="10" stroke-linecap="round" stroke-linejoin="round"/>
<path d="M14.0667 10.8335V13.7918" stroke="white" stroke-width="1.5" stroke-miterlimit="10" stroke-linecap="round" stroke-linejoin="round"/>
<path d="M17.2416 3.35034V5.20032C17.2416 5.87532 16.8166 6.717 16.4 7.142L14.9333 8.43365C14.6583 8.36699 14.3666 8.33366 14.0666 8.33366C11.8833 8.33366 10.1083 10.1087 10.1083 12.292C10.1083 13.0337 10.3166 13.7337 10.6833 14.3337C10.9916 14.8503 11.4166 15.292 11.9333 15.6086V15.892C11.9333 16.4003 11.6 17.0753 11.175 17.3253L9.99997 18.0837C8.9083 18.7587 7.39163 18.0003 7.39163 16.6503V12.192C7.39163 11.6003 7.04997 10.842 6.71663 10.4253L3.51663 7.05863C3.09997 6.63363 2.7583 5.87534 2.7583 5.37534V3.43365C2.7583 2.42532 3.51663 1.66699 4.44163 1.66699H15.5583C16.4833 1.66699 17.2416 2.42534 17.2416 3.35034Z" stroke="white" stroke-width="1.5" stroke-miterlimit="10" stroke-linecap="round" stroke-linejoin="round"/>
</svg>
