<svg width="20" height="20" viewBox="0 0 20 20" fill="none" xmlns="http://www.w3.org/2000/svg">
<path d="M10 0C15.527 0 20 4.47254 20 10C20 15.5271 15.5275 20 10 20C4.47293 20 0 15.5275 0 10C0 4.47293 4.47254 0 10 0ZM10 1.5625C5.33652 1.5625 1.5625 5.33621 1.5625 10C1.5625 14.6635 5.33621 18.4375 10 18.4375C14.6634 18.4375 18.4375 14.6638 18.4375 10C18.4375 5.33652 14.6638 1.5625 10 1.5625ZM10 8.37207C10.4315 8.37207 10.7812 8.72184 10.7812 9.15332V14.1846C10.7811 14.6159 10.4314 14.9658 10 14.9658C9.5686 14.9658 9.21889 14.6159 9.21875 14.1846V9.15332C9.21875 8.72184 9.56852 8.37207 10 8.37207ZM10 5.30664C10.5825 5.30664 11.0547 5.77884 11.0547 6.36133C11.0544 6.94359 10.5823 7.41602 10 7.41602C9.41768 7.41602 8.94558 6.94359 8.94531 6.36133C8.94531 5.77884 9.41751 5.30664 10 5.30664Z" fill="#D2F159"/>
</svg>
