<svg width="32" height="32" viewBox="0 0 32 32" fill="none" xmlns="http://www.w3.org/2000/svg">
<path d="M15.9999 26.6667C15.2666 26.6667 14.6388 26.4056 14.1166 25.8834C13.5944 25.3612 13.3333 24.7334 13.3333 24C13.3333 23.2667 13.5944 22.6389 14.1166 22.1167C14.6388 21.5945 15.2666 21.3334 15.9999 21.3334C16.7333 21.3334 17.361 21.5945 17.8833 22.1167C18.4055 22.6389 18.6666 23.2667 18.6666 24C18.6666 24.7334 18.4055 25.3612 17.8833 25.8834C17.361 26.4056 16.7333 26.6667 15.9999 26.6667ZM15.9999 18.6667C15.2666 18.6667 14.6388 18.4056 14.1166 17.8834C13.5944 17.3612 13.3333 16.7334 13.3333 16C13.3333 15.2667 13.5944 14.6389 14.1166 14.1167C14.6388 13.5945 15.2666 13.3334 15.9999 13.3334C16.7333 13.3334 17.361 13.5945 17.8833 14.1167C18.4055 14.6389 18.6666 15.2667 18.6666 16C18.6666 16.7334 18.4055 17.3612 17.8833 17.8834C17.361 18.4056 16.7333 18.6667 15.9999 18.6667ZM15.9999 10.6667C15.2666 10.6667 14.6388 10.4056 14.1166 9.88337C13.5944 9.36115 13.3333 8.73337 13.3333 8.00004C13.3333 7.26671 13.5944 6.63893 14.1166 6.11671C14.6388 5.59449 15.2666 5.33337 15.9999 5.33337C16.7333 5.33337 17.361 5.59449 17.8833 6.11671C18.4055 6.63893 18.6666 7.26671 18.6666 8.00004C18.6666 8.73337 18.4055 9.36115 17.8833 9.88337C17.361 10.4056 16.7333 10.6667 15.9999 10.6667Z" fill="white"/>
</svg>
