<svg width="23" height="24" viewBox="0 0 23 24" fill="none" xmlns="http://www.w3.org/2000/svg">
<path d="M9.23727 19C9.23727 20.1 10.0686 21 11.0847 21C12.1008 21 12.9322 20.1 12.9322 19C12.9322 17.9 12.1008 17 11.0847 17C10.0686 17 9.23727 17.9 9.23727 19Z" stroke="white" stroke-opacity="0.3" stroke-width="1.5"/>
<path d="M9.23727 5C9.23727 6.1 10.0686 7 11.0847 7C12.1008 7 12.9322 6.1 12.9322 5C12.9322 3.9 12.1008 3 11.0847 3C10.0686 3 9.23727 3.9 9.23727 5Z" stroke="white" stroke-opacity="0.3" stroke-width="1.5"/>
<path d="M9.23727 12C9.23727 13.1 10.0686 14 11.0847 14C12.1008 14 12.9322 13.1 12.9322 12C12.9322 10.9 12.1008 10 11.0847 10C10.0686 10 9.23727 10.9 9.23727 12Z" stroke="white" stroke-opacity="0.3" stroke-width="1.5"/>
</svg>
