<svg width="32" height="32" viewBox="0 0 32 32" fill="none" xmlns="http://www.w3.org/2000/svg">
<path d="M17.6699 2.66675C18.0132 2.66675 18.2772 2.94675 18.2772 3.28008V7.57341C18.2772 10.0134 20.2706 12.0134 22.6864 12.0267C23.6897 12.0267 24.4818 12.0401 25.0891 12.0401L25.314 12.0391C25.7198 12.036 26.2662 12.0267 26.7392 12.0267C27.0693 12.0267 27.3333 12.2934 27.3333 12.6267V23.3467C27.3333 26.6534 24.6798 29.3334 21.4059 29.3334H10.8976C7.46531 29.3334 4.66663 26.5201 4.66663 23.0534V8.68008C4.66663 5.37341 7.33329 2.66675 10.6204 2.66675H17.6699ZM19.0825 19.8667H11.9009C11.3597 19.8667 10.9109 20.3067 10.9109 20.8534C10.9109 21.4001 11.3597 21.8534 11.9009 21.8534H19.0825C19.6237 21.8534 20.0726 21.4001 20.0726 20.8534C20.0726 20.3067 19.6237 19.8667 19.0825 19.8667ZM16.363 13.2001H11.9009C11.3597 13.2001 10.9109 13.6534 10.9109 14.2001C10.9109 14.7467 11.3597 15.1867 11.9009 15.1867H16.363C16.9042 15.1867 17.3531 14.7467 17.3531 14.2001C17.3531 13.6534 16.9042 13.2001 16.363 13.2001ZM20.2009 3.87475C20.2009 3.30008 20.8913 3.01475 21.286 3.42941C22.7131 4.92808 25.2068 7.54808 26.6009 9.01208C26.9864 9.41608 26.7039 10.0867 26.1481 10.0881C25.0629 10.0921 23.7837 10.0881 22.8636 10.0787C21.4035 10.0787 20.2009 8.86408 20.2009 7.38941V3.87475Z" fill="#D8DDE8" fill-opacity="0.25"/>
</svg>
