<svg width="32" height="32" viewBox="0 0 32 32" fill="none" xmlns="http://www.w3.org/2000/svg">
<path fill-rule="evenodd" clip-rule="evenodd" d="M7 6.66667C7.55229 6.66667 8 6.21895 8 5.66667L8 5.33333C8 4.59695 8.59695 4 9.33333 4C10.0697 4 10.6667 4.59695 10.6667 5.33333V5.66667C10.6667 6.21895 11.1144 6.66667 11.6667 6.66667H13.6667C14.219 6.66667 14.6667 6.21895 14.6667 5.66667V5.33333C14.6667 4.59695 15.2636 4 16 4C16.7364 4 17.3333 4.59695 17.3333 5.33333V5.66667C17.3333 6.21895 17.781 6.66667 18.3333 6.66667H20.3333C20.8856 6.66667 21.3333 6.21895 21.3333 5.66667V5.33333C21.3333 4.59695 21.9303 4 22.6667 4C23.403 4 24 4.59695 24 5.33333V5.66667C24 6.21895 24.4477 6.66667 25 6.66667H25.3333C26.8061 6.66667 28 7.86057 28 9.33333V10V11C28 11.5523 27.5523 12 27 12H5C4.44772 12 4 11.5523 4 11V10V9.33333C4 7.86058 5.19391 6.66667 6.66667 6.66667H7ZM4 25.3333V15.6667C4 15.1144 4.44772 14.6667 5 14.6667H27C27.5523 14.6667 28 15.1144 28 15.6667V25.3333C28 26.8061 26.8061 28 25.3333 28H6.66667C5.19391 28 4 26.8061 4 25.3333ZM12.0133 17C12.0133 16.4477 11.5656 16 11.0133 16H10.3467C9.79438 16 9.34667 16.4477 9.34667 17V17.6667C9.34667 18.219 9.79438 18.6667 10.3467 18.6667H11.0133C11.5656 18.6667 12.0133 18.219 12.0133 17.6667V17ZM14.68 17C14.68 16.4477 15.1277 16 15.68 16H16.3467C16.899 16 17.3467 16.4477 17.3467 17V17.6667C17.3467 18.219 16.899 18.6667 16.3467 18.6667H15.68C15.1277 18.6667 14.68 18.219 14.68 17.6667V17ZM22.68 17C22.68 16.4477 22.2323 16 21.68 16H21.0133C20.4611 16 20.0133 16.4477 20.0133 17V17.6667C20.0133 18.219 20.4611 18.6667 21.0133 18.6667H21.68C22.2323 18.6667 22.68 18.219 22.68 17.6667V17ZM9.34667 22.3333C9.34667 21.781 9.79438 21.3333 10.3467 21.3333H11.0133C11.5656 21.3333 12.0133 21.781 12.0133 22.3333V23C12.0133 23.5523 11.5656 24 11.0133 24H10.3467C9.79438 24 9.34667 23.5523 9.34667 23V22.3333ZM17.3467 22.3333C17.3467 21.781 16.899 21.3333 16.3467 21.3333H15.68C15.1277 21.3333 14.68 21.781 14.68 22.3333V23C14.68 23.5523 15.1277 24 15.68 24H16.3467C16.899 24 17.3467 23.5523 17.3467 23V22.3333ZM20.0133 22.3333C20.0133 21.781 20.4611 21.3333 21.0133 21.3333H21.68C22.2323 21.3333 22.68 21.781 22.68 22.3333V23C22.68 23.5523 22.2323 24 21.68 24H21.0133C20.4611 24 20.0133 23.5523 20.0133 23V22.3333Z" fill="#D8DDE8" fill-opacity="0.25"/>
</svg>
