<svg width="20" height="20" viewBox="0 0 20 20" fill="none" xmlns="http://www.w3.org/2000/svg">
<path fill-rule="evenodd" clip-rule="evenodd" d="M8.60352 17.1717C9.03519 17.6525 9.58935 17.9167 10.1644 17.9167H10.1652C10.7427 17.9167 11.2994 17.6525 11.7319 17.1708C11.9635 16.915 12.3585 16.8942 12.6144 17.125C12.871 17.3558 12.8919 17.7517 12.661 18.0075C11.9877 18.755 11.1019 19.1667 10.1652 19.1667H10.1635C9.22935 19.1658 8.34519 18.7542 7.67436 18.0067C7.44352 17.7508 7.46435 17.355 7.72102 17.125C7.97769 16.8933 8.37269 16.9142 8.60352 17.1717ZM10.2059 1.25C13.91 1.25 16.3984 4.135 16.3984 6.82917C16.3984 8.215 16.7509 8.8025 17.125 9.42583C17.495 10.0408 17.9142 10.7392 17.9142 12.0592C17.6234 15.4317 14.1025 15.7067 10.2059 15.7067C6.30919 15.7067 2.78752 15.4317 2.50001 12.1125C2.49752 10.7392 2.91669 10.0408 3.28669 9.42583L3.41731 9.20596C3.73892 8.65322 4.01336 8.05196 4.01336 6.82917C4.01336 4.135 6.50169 1.25 10.2059 1.25ZM10.2059 2.5C7.29335 2.5 5.26336 4.78167 5.26336 6.82917C5.26336 8.56167 4.78252 9.3625 4.35752 10.0692C4.01669 10.6367 3.74752 11.085 3.74752 12.0592C3.88669 13.6308 4.92419 14.4567 10.2059 14.4567C15.4584 14.4567 16.5284 13.5942 16.6667 12.005C16.6642 11.085 16.395 10.6367 16.0542 10.0692C15.6292 9.3625 15.1484 8.56167 15.1484 6.82917C15.1484 4.78167 13.1184 2.5 10.2059 2.5Z" fill="#D2F159"/>
</svg>
