<svg width="15" height="15" viewBox="0 0 15 15" fill="none" xmlns="http://www.w3.org/2000/svg">
<g clip-path="url(#clip0_57_392)">
<path fill-rule="evenodd" clip-rule="evenodd" d="M9.81011 14.5C9.45011 14.5 9.07011 14.46 8.70011 14.38C7.09011 14.04 5.41011 13 3.70011 11.28C1.99011 9.56 0.950114 7.87 0.620114 6.25C0.240114 4.41 0.790114 2.72 2.27011 1.24C2.27011 1.24 2.27011 1.24 2.28011 1.23C2.49011 1.02 2.94011 0.65 3.50011 0.53C3.61011 0.51 3.72011 0.5 3.82011 0.5C4.23011 0.5 4.60011 0.67 4.93011 0.99L6.13011 2.2C6.44011 2.51 6.59011 2.91 6.59011 3.38C6.59011 3.85 6.41011 4.28 6.09011 4.6L5.63011 5.06C5.19011 5.5 4.99011 5.94 5.04011 6.38C5.07011 6.73 5.27011 7.09 5.63011 7.45L7.52011 9.35C7.84011 9.67 8.26011 9.85 8.72011 9.85C9.18011 9.85 9.59011 9.68 9.91011 9.36C9.91011 9.36 9.93011 9.34 9.94011 9.33C10.2901 8.99 10.7701 8.53 11.2501 8.37C11.3801 8.32 11.5101 8.3 11.6401 8.3C11.7501 8.3 11.8701 8.32 11.9801 8.35C12.2501 8.43 12.5201 8.61 12.8001 8.89L13.9201 10.02C14.3201 10.37 14.5101 10.81 14.5101 11.26C14.5101 11.5 14.4601 11.72 14.3601 11.94C14.3401 11.98 14.2701 12.12 14.0601 12.35C13.9501 12.48 13.8301 12.6 13.7101 12.71C12.5101 13.9 11.2201 14.49 9.82011 14.49L9.81011 14.5Z" stroke="white" stroke-miterlimit="10"/>
</g>
<defs>
<clipPath id="clip0_57_392">
<rect width="15" height="15" fill="white"/>
</clipPath>
</defs>
</svg>
