<svg width="14" height="14" viewBox="0 0 14 14" fill="none" xmlns="http://www.w3.org/2000/svg">
<g clip-path="url(#clip0_32_283)">
<path d="M12.0283 4.92921C11.4158 2.23421 9.065 1.02087 7 1.02087C7 1.02087 7 1.02087 6.99417 1.02087C4.935 1.02087 2.57834 2.22837 1.96584 4.92337C1.28334 7.93337 3.12667 10.4825 4.795 12.0867C5.41334 12.6817 6.20667 12.9792 7 12.9792C7.79334 12.9792 8.58667 12.6817 9.19917 12.0867C10.8675 10.4825 12.7108 7.93921 12.0283 4.92921ZM7 7.85171C5.985 7.85171 5.1625 7.02921 5.1625 6.01421C5.1625 4.99921 5.985 4.17671 7 4.17671C8.015 4.17671 8.8375 4.99921 8.8375 6.01421C8.8375 7.02921 8.015 7.85171 7 7.85171Z" fill="#171725"/>
</g>
<defs>
<clipPath id="clip0_32_283">
<rect width="14" height="14" fill="white"/>
</clipPath>
</defs>
</svg>
