<svg width="20" height="20" viewBox="0 0 20 20" fill="none" xmlns="http://www.w3.org/2000/svg">
<path d="M10 0.625C12.7569 0.625 15 2.86813 15 5.625V6.25H15.9082C17.1306 6.25004 18.125 7.24436 18.125 8.4668V17.1582C18.125 18.3806 17.1306 19.375 15.9082 19.375H4.0918C2.86936 19.375 1.87504 18.3806 1.875 17.1582V8.4668C1.87504 7.24436 2.86936 6.25004 4.0918 6.25H5V5.625C5 2.86813 7.24312 0.625 10 0.625ZM4.0918 7.5C3.55873 7.50004 3.12504 7.93373 3.125 8.4668V17.1582C3.12504 17.6913 3.55873 18.125 4.0918 18.125H15.9082C16.4413 18.125 16.875 17.6913 16.875 17.1582V8.4668C16.875 7.93373 16.4413 7.50004 15.9082 7.5H4.0918ZM10 10C11.0337 10 11.875 10.8413 11.875 11.875C11.875 12.6887 11.3506 13.376 10.625 13.6348V15.625C10.625 15.97 10.345 16.25 10 16.25C9.655 16.25 9.375 15.97 9.375 15.625V13.6348C8.64941 13.376 8.125 12.6887 8.125 11.875C8.125 10.8413 8.96625 10 10 10ZM10 11.25C9.65562 11.25 9.375 11.5306 9.375 11.875C9.375 12.2194 9.65562 12.5 10 12.5C10.3444 12.5 10.625 12.2194 10.625 11.875C10.625 11.5306 10.3444 11.25 10 11.25ZM10 1.875C7.93188 1.875 6.25 3.55687 6.25 5.625V6.25H13.75V5.625C13.75 3.55687 12.0681 1.875 10 1.875Z" fill="#D2F159"/>
</svg>
