<svg width="20" height="20" viewBox="0 0 20 20" fill="none" xmlns="http://www.w3.org/2000/svg">
<path d="M9.51123 0.198242C9.78294 -0.0660039 10.216 -0.0660972 10.4878 0.198242C12.3877 2.04548 14.667 2.90619 17.6606 2.90625C18.0474 2.90625 18.3608 3.21983 18.3608 3.60645C18.3608 4.09975 18.3711 4.60966 18.3813 5.14941C18.4773 10.1745 18.6081 17.0565 10.229 19.9609C10.1548 19.9867 10.077 20 9.99951 20C9.92204 20 9.84432 19.9867 9.77002 19.9609C1.39171 17.0567 1.5227 10.1754 1.61865 5.15039C1.62901 4.61046 1.63916 4.09991 1.63916 3.60645C1.63916 3.21999 1.95199 2.90651 2.33838 2.90625C5.332 2.90625 7.61141 2.04553 9.51123 0.198242ZM9.99951 1.65137C8.08006 3.32346 5.83763 4.17364 3.03369 4.29199C3.02977 4.57993 3.02483 4.87371 3.01904 5.17676C2.92262 10.2282 2.81376 15.9462 9.99951 18.5566C17.186 15.9461 17.0773 10.2274 16.981 5.17578C16.9752 4.87308 16.9702 4.57969 16.9663 4.29199C14.1622 4.17373 11.9191 3.32346 9.99951 1.65137ZM12.4106 7.56836C12.684 7.2952 13.1267 7.29516 13.3999 7.56836C13.6733 7.84166 13.6734 8.2852 13.3999 8.55859L9.52588 12.4316C9.38933 12.5681 9.2107 12.6366 9.03174 12.6367C8.85262 12.6367 8.67327 12.5683 8.53662 12.4316L6.59912 10.4951C6.32601 10.2217 6.32593 9.7783 6.59912 9.50488C6.87236 9.23165 7.31595 9.23178 7.58936 9.50488L9.03174 10.9473L12.4106 7.56836Z" fill="#D2F159"/>
</svg>
