<svg width="20" height="20" viewBox="0 0 20 20" fill="none" xmlns="http://www.w3.org/2000/svg">
<g clip-path="url(#clip0_56_170)">
<path d="M10 0C15.5275 0 20 4.47328 20 10C20 15.5275 15.5267 20 10 20C4.47254 20 0 15.5267 0 10C0 4.47254 4.47328 0 10 0ZM10 1.5625C5.33621 1.5625 1.5625 5.33684 1.5625 10C1.5625 14.6638 5.33684 18.4375 10 18.4375C14.6638 18.4375 18.4375 14.6632 18.4375 10C18.4375 5.33621 14.6632 1.5625 10 1.5625ZM10 13.8086C10.5393 13.8086 10.9766 14.2458 10.9766 14.7852C10.9766 15.3245 10.5393 15.7617 10 15.7617C9.46066 15.7617 9.02344 15.3245 9.02344 14.7852C9.02344 14.2458 9.46066 13.8086 10 13.8086ZM10 5.01953C11.7231 5.01953 13.125 6.42141 13.125 8.14453C13.125 9.59801 12.1276 10.8231 10.7812 11.1709V12.4414C10.7812 12.8729 10.4315 13.2227 10 13.2227C9.56852 13.2227 9.21875 12.8729 9.21875 12.4414V10.4883C9.21875 10.0568 9.56852 9.70703 10 9.70703C10.8616 9.70703 11.5625 9.00609 11.5625 8.14453C11.5625 7.28297 10.8616 6.58203 10 6.58203C9.13844 6.58203 8.4375 7.28297 8.4375 8.14453C8.4375 8.57602 8.08773 8.92578 7.65625 8.92578C7.22477 8.92578 6.875 8.57602 6.875 8.14453C6.875 6.42141 8.27687 5.01953 10 5.01953Z" fill="#D2F159"/>
</g>
<defs>
<clipPath id="clip0_56_170">
<rect width="20" height="20" fill="white"/>
</clipPath>
</defs>
</svg>
