<svg width="32" height="32" viewBox="0 0 32 32" fill="none" xmlns="http://www.w3.org/2000/svg">
<path fill-rule="evenodd" clip-rule="evenodd" d="M6.66667 10.6666C6.66667 7.72107 9.05448 5.33325 12 5.33325C14.9455 5.33325 17.3333 7.72107 17.3333 10.6666C17.3333 11.255 17.238 11.8212 17.062 12.3506L13.684 15.7286C13.1546 15.9046 12.5884 15.9999 12 15.9999C9.05448 15.9999 6.66667 13.6121 6.66667 10.6666ZM12.0793 17.3333H9.33333C6.38781 17.3333 4 19.7211 4 22.6666V23.9999C4 25.4727 5.19391 26.6666 6.66667 26.6666H9.56209C9.32541 25.9971 9.26753 25.2664 9.41097 24.549L10.3099 20.0529C10.4648 19.2784 10.8454 18.5672 11.4039 18.0087L12.0793 17.3333Z" fill="#D2F159"/>
<path fill-rule="evenodd" clip-rule="evenodd" d="M24.1229 10.6666C23.6137 10.6666 23.1095 10.7669 22.6391 10.9618C22.1688 11.1567 21.7412 11.4425 21.3813 11.8025L13.2895 19.8943C13.1033 20.0805 12.9765 20.3176 12.9248 20.5757L12.0259 25.0718C11.9385 25.509 12.0753 25.9608 12.3905 26.2761C12.7057 26.5913 13.1576 26.7281 13.5948 26.6407L18.0909 25.7417C18.349 25.6901 18.5861 25.5632 18.7723 25.3771L26.8643 17.2851C27.2243 16.9251 27.5099 16.4978 27.7048 16.0275C27.8997 15.5571 28 15.0529 28 14.5437C28 14.0345 27.8997 13.5303 27.7048 13.0599C27.5099 12.5895 27.2242 12.1621 26.8641 11.8021C26.5042 11.4422 26.0769 11.1566 25.6067 10.9618C25.1363 10.7669 24.6321 10.6666 24.1229 10.6666Z" fill="#D2F159"/>
</svg>
