<svg width="32" height="32" viewBox="0 0 32 32" fill="none" xmlns="http://www.w3.org/2000/svg">
<path fill-rule="evenodd" clip-rule="evenodd" d="M16.125 4C12.8113 4 10.125 6.68629 10.125 10C10.125 13.3137 12.8113 16 16.125 16C19.4387 16 22.125 13.3137 22.125 10C22.125 6.68629 19.4387 4 16.125 4ZM13.125 17.5C9.81129 17.5 7.125 20.1863 7.125 23.5V25C7.125 26.6569 8.46815 28 10.125 28H22.125C23.7819 28 25.125 26.6569 25.125 25V23.5C25.125 20.1863 22.4387 17.5 19.125 17.5H13.125Z" fill="#D2F159"/>
<path d="M12.125 23C12.125 22.2636 12.722 21.6667 13.4583 21.6667H14.7917V20.3333C14.7917 19.597 15.3886 19 16.125 19C16.8614 19 17.4583 19.597 17.4583 20.3333V21.6667H18.7917C19.528 21.6667 20.125 22.2636 20.125 23C20.125 23.7364 19.528 24.3333 18.7917 24.3333H17.4583V25.6667C17.4583 26.403 16.8614 27 16.125 27C15.3886 27 14.7917 26.403 14.7917 25.6667V24.3333H13.4583C12.722 24.3333 12.125 23.7364 12.125 23Z" fill="#333842"/>
</svg>
