<svg width="32" height="32" viewBox="0 0 32 32" fill="none" xmlns="http://www.w3.org/2000/svg">
<path fill-rule="evenodd" clip-rule="evenodd" d="M16 18.6667C16 16.4575 17.7909 14.6667 20 14.6667H25.3333C26.8061 14.6667 28 15.8606 28 17.3333V20C28 21.4728 26.8061 22.6667 25.3333 22.6667H20C17.7909 22.6667 16 20.8758 16 18.6667ZM20 17.3333C19.2636 17.3333 18.6667 17.9303 18.6667 18.6667C18.6667 19.403 19.2636 20 20 20H25.3333V17.3333H20Z" fill="#D2F159"/>
<path fill-rule="evenodd" clip-rule="evenodd" d="M16.3905 4.39052C16.9112 3.86983 17.7554 3.86983 18.2761 4.39052L21.8856 8H18.1144L16.3905 6.27614C15.8698 5.75544 15.8698 4.91122 16.3905 4.39052ZM16.5523 8L12.9428 4.39052C12.4221 3.86983 11.5779 3.86983 11.0572 4.39052L7.44771 8H16.5523ZM6.11438 9.33333L6.04044 9.40728C4.86982 9.689 4 10.7429 4 12V25.3333C4 26.8061 5.19391 28 6.66667 28H22.6667C24.1394 28 25.3333 26.8061 25.3333 25.3333H20C16.3181 25.3333 13.3333 22.3486 13.3333 18.6667C13.3333 14.9848 16.3181 12 20 12L25.3333 12C25.3333 10.7429 24.4635 9.689 23.2929 9.40728L23.219 9.33333H6.11438Z" fill="#D2F159"/>
</svg>
