<svg xmlns="http://www.w3.org/2000/svg" viewBox="0 0 48 32" fill="none">
  <rect width="48" height="32" rx="4" fill="#000"/>
  <path d="M13.3 12.1c-.4.5-1 .8-1.6.7-.1-.6.2-1.2.6-1.6.4-.5 1-.7 1.5-.8.1.6-.2 1.2-.5 1.7zm.5.9c-.9 0-1.6.5-2 .5-.4 0-1.1-.5-1.8-.5-.9 0-1.8.5-2.2 1.3-.9 1.6-.2 4 .7 5.3.5.6 1 1.3 1.8 1.3.7 0 1-.5 1.8-.5.9 0 1.1.5 1.9.5.8 0 1.2-.7 1.7-1.3.5-.6.7-1.2.7-1.2s-1.4-.5-1.4-2.1c0-1.3 1.1-2 1.1-2-.6-.9-1.5-1-1.8-1-.4 0-.9.1-1.5.7z" fill="#fff"/>
  <path d="M20.6 11h1.8c1.3 0 2.1.9 2.1 2.2 0 1.3-.9 2.2-2.2 2.2h-1.2v2.2h-.5V11zm.5 4h1c.9 0 1.4-.5 1.4-1.3 0-.8-.5-1.3-1.4-1.3h-1v2.6zm4.1 1.8c0-.9.7-1.4 1.9-1.5l1.3-.1v-.4c0-.6-.4-.9-1-.9-.5 0-.9.3-1 .7h-.5c.1-.7.7-1.2 1.5-1.2 1 0 1.5.5 1.5 1.4v2.9h-.5v-.7c-.3.5-.8.8-1.3.8-.8 0-1.4-.5-1.4-1.3zm3.2-.4v-.4l-1.2.1c-.8 0-1.2.3-1.2.8 0 .5.4.8.9.8.8 0 1.5-.5 1.5-1.3zm2.1 2.9v-.5h.3c.5 0 .7-.2.9-.7l.1-.3-1.5-4.2h.6l1.2 3.6 1.2-3.6h.6l-1.6 4.4c-.4 1-8 1.3-1.6 1.3h-.2z" fill="#fff"/>
</svg>
