<svg xmlns="http://www.w3.org/2000/svg" viewBox="0 0 48 32" fill="none">
  <rect width="48" height="32" rx="4" fill="#fff" stroke="#e0e0e0"/>
  <path d="M22.3 16.5v3.1h-1v-7.7h2.6c.6 0 1.2.2 1.7.6.5.4.7.9.7 1.6s-.2 1.2-.7 1.6c-.4.4-1 .6-1.7.6h-1.6v.2zm0-3.6v2.6h1.6c.4 0 .7-.1 1-.4.3-.2.4-.5.4-.9s-.1-.7-.4-.9c-.2-.3-.6-.4-1-.4h-1.6z" fill="#5F6368"/>
  <path d="M29.6 13.7c.7 0 1.3.2 1.8.6.4.4.6 1 .6 1.8v2.6H31v-.6c-.4.5-.9.7-1.5.7-.5 0-.9-.1-1.2-.4-.3-.3-.5-.6-.5-1.1 0-.5.2-.9.5-1.1.4-.3.8-.4 1.5-.4.5 0 1 .1 1.3.3v-.3c0-.3-.1-.6-.4-.8-.2-.2-.5-.3-.9-.3-.5 0-.9.2-1.1.6l-.9-.6c.5-.6 1.1-.9 1.8-.9zm-1.1 3.5c0 .2.1.4.3.6.2.2.5.2.7.2.4 0 .7-.1 1-.4.3-.3.5-.6.5-1-.3-.2-.7-.3-1.1-.3-.4 0-.7.1-.9.3-.3.2-.5.4-.5.6z" fill="#5F6368"/>
  <path d="M37 13.8l-3.2 7.3h-1l1.2-2.5-2.1-4.8h1.1l1.5 3.6 1.5-3.6h1z" fill="#5F6368"/>
  <path d="M17 15.5c0-.3 0-.6-.1-.9h-3.4v1.6h2c-.1.4-.3.8-.7 1.1v.9h1.1c.7-.6 1.1-1.6 1.1-2.7z" fill="#4285F4"/>
  <path d="M13.5 19.1c.9 0 1.7-.3 2.3-.9l-1.1-.9c-.3.2-.7.4-1.2.4-.9 0-1.7-.6-2-1.5h-1.2v.9c.6 1.2 1.8 2 3.2 2z" fill="#34A853"/>
  <path d="M11.5 16.3c-.1-.2-.1-.5-.1-.7 0-.2 0-.5.1-.7v-.9h-1.2c-.2.5-.4 1-.4 1.6 0 .6.1 1.1.4 1.6l1.2-.9z" fill="#FBBC05"/>
  <path d="M13.5 13.3c.5 0 1 .2 1.4.5l1-.9c-.6-.6-1.4-.9-2.4-.9-1.4 0-2.6.8-3.2 2l1.2.9c.3-.9 1.1-1.6 2-1.6z" fill="#EA4335"/>
</svg>
