<?xml version="1.0" encoding="UTF-8"?>
<svg id="Layer_2" data-name="Layer 2" xmlns="http://www.w3.org/2000/svg" version="1.1" viewBox="0 0 30 30">
  <defs>
    <style>
      .cls-1 {
        fill: #4285f4;
      }

      .cls-1, .cls-2, .cls-3, .cls-4, .cls-5 {
        stroke-width: 0px;
      }

      .cls-2 {
        fill: #3c4043;
      }

      .cls-3 {
        fill: #e94235;
      }

      .cls-4 {
        fill: #34a853;
      }

      .cls-5 {
        fill: #fabb05;
      }
    </style>
  </defs>
  <g id="G_Pay_Lockup" data-name="G Pay Lockup">
    <g id="Pay_Typeface" data-name="Pay Typeface">
      <path id="Letter_p" data-name="Letter p" class="cls-2" d="M14,15.5v3.5h-1.1v-8.6h2.9c.7,0,1.4.2,1.9.7.5.5.8,1.1.8,1.8s-.3,1.3-.8,1.8c-.5.5-1.1.7-1.9.7h-1.8ZM14,11.5v3h1.8c.4,0,.8-.1,1.1-.4.3-.3.4-.6.4-1s-.1-.7-.4-1c-.3-.3-.6-.5-1.1-.5h-1.8Z"/>
      <path id="Letter_a" data-name="Letter a" class="cls-2" d="M21.4,12.9c.8,0,1.5.2,1.9.7.5.4.7,1,.7,1.8v3.6h-1v-.8h0c-.5.7-1.1,1-1.8,1s-1.2-.2-1.6-.6-.7-.9-.7-1.4.2-1.1.7-1.4c.5-.4,1.1-.5,1.8-.5s1.2.1,1.6.4v-.3c0-.4-.1-.7-.5-1-.3-.3-.7-.4-1.1-.4-.6,0-1.1.3-1.5.8l-1-.6c.5-.8,1.3-1.2,2.4-1.2ZM20,17.2c0,.3.1.5.4.7.2.2.5.3.9.3.5,0,.9-.2,1.2-.5s.5-.7.5-1.2c-.3-.3-.8-.4-1.4-.4s-.8.1-1.1.3c-.3.2-.5.5-.5.8Z"/>
      <path id="Letter_y" data-name="Letter y" class="cls-2" d="M30,13.1l-3.7,8.4h-1.1l1.4-3-2.4-5.5h1.2l1.7,4.2h0l1.7-4.2h1.2Z"/>
    </g>
    <g id="G_Mark" data-name="G Mark">
      <path id="Blue_500" data-name="Blue 500" class="cls-1" d="M9.6,14.8c0-.4,0-.7,0-1h-4.6v1.9h2.7c-.1.6-.5,1.2-1,1.5v1.2h1.6c.9-.9,1.5-2.1,1.5-3.6Z"/>
      <path id="Green_500" data-name="Green 500" class="cls-4" d="M6.6,17.2c-.4.3-1,.5-1.7.5-1.3,0-2.4-.9-2.8-2H.5v1.3c.8,1.6,2.5,2.7,4.4,2.7s2.4-.4,3.3-1.2l-1.6-1.2Z"/>
      <path id="Yellow_500" data-name="Yellow 500" class="cls-5" d="M2,14.7c0-.3,0-.6.2-.9v-1.3H.5c-.3.7-.5,1.4-.5,2.2s.2,1.5.5,2.2l1.6-1.3c0-.3-.2-.6-.2-.9Z"/>
      <path id="Red_500" data-name="Red 500" class="cls-3" d="M4.9,11.7c.7,0,1.4.2,1.9.7l1.4-1.4c-.9-.8-2-1.3-3.3-1.3-1.9,0-3.6,1.1-4.4,2.7l1.6,1.3c.4-1.2,1.5-2,2.8-2Z"/>
    </g>
  </g>
</svg>