<svg xmlns="http://www.w3.org/2000/svg" viewBox="0 0 48 32" fill="none">
  <rect width="48" height="32" rx="4" fill="#1A1F71"/>
  <path d="M19.5 21H17L18.7 11H21.2L19.5 21Z" fill="white"/>
  <path d="M29.3 11.2C28.8 11 28 10.8 27 10.8C24.5 10.8 22.8 12 22.8 13.7C22.8 15 24 15.7 24.9 16.1C25.8 16.5 26.1 16.8 26.1 17.2C26.1 17.8 25.4 18.1 24.7 18.1C23.7 18.1 23.2 18 22.4 17.6L22.1 17.4L21.8 19.3C22.4 19.6 23.4 19.8 24.5 19.8C27.2 19.8 28.8 18.6 28.8 16.8C28.8 15.8 28.2 15 26.8 14.4C26 14 25.5 13.8 25.5 13.3C25.5 12.9 25.9 12.5 26.8 12.5C27.6 12.5 28.2 12.6 28.6 12.8L28.8 12.9L29.3 11.2Z" fill="white"/>
  <path d="M32.5 11H30.6C30 11 29.5 11.2 29.3 11.8L25.5 21H28.2L28.7 19.5H32L32.3 21H34.7L32.5 11ZM29.4 17.8C29.6 17.3 30.4 15.3 30.4 15.3C30.4 15.3 30.6 14.8 30.7 14.5L30.9 15.2L31.5 17.8H29.4Z" fill="white"/>
  <path d="M17.8 11L15.3 17.8L15 16.2C14.5 14.7 13.1 13 11.5 12.2L13.8 21H16.5L20.5 11H17.8Z" fill="white"/>
  <path d="M13.5 11H9.5V11.2C12.7 12 14.8 13.9 15 16.2L14.3 11.8C14.2 11.2 13.7 11 13.5 11Z" fill="#F9A533"/>
</svg>
